<svg width="63" height="44" viewBox="0 0 63 44" fill="none" xmlns="http://www.w3.org/2000/svg">
<path d="M44.1361 41.4291L44.026 20.7628C43.9936 14.6739 43.9773 11.6294 42.0757 9.74793C40.174 7.86644 37.1296 7.88266 31.0407 7.91511L20.7075 7.97017C14.6186 8.00262 11.5742 8.01884 9.69267 9.9205C7.81118 11.8222 7.8274 14.8666 7.85985 20.9555L7.96997 41.6219C8.00242 47.7107 8.01864 50.7552 9.9203 52.6367C11.822 54.5182 14.8664 54.502 20.9553 54.4695L31.2885 54.4144C37.3774 54.382 40.4218 54.3658 42.3033 52.4641C44.1848 50.5625 44.1686 47.518 44.1361 41.4291Z" stroke="#22BF96" stroke-width="3.875"/>
<path d="M28.7055 54.4282L44.2053 54.3456C49.0764 54.3197 51.512 54.3067 53.0172 52.7854C54.5224 51.264 54.5094 48.8285 54.4834 43.9574L54.3871 25.8743C54.3611 21.0032 54.3481 18.5676 52.8268 17.0624C51.3055 15.5572 48.8699 15.5702 43.9988 15.5962" stroke="#22BF96" stroke-width="3.875"/>
<path d="M33.7344 28.5677L33.7619 33.7343" stroke="#22BF96" stroke-width="3.875" stroke-linecap="round"/>
</svg>
